<svg xmlns="http://www.w3.org/2000/svg" viewBox="0 0 18 68"><path fill="#bc63dc" fill-rule="evenodd" d="M11 32V10c0-.056 6.717-6.877 6.717-6.877A1.006 1.006 0 0 0 17.7 1.7L16.3.3A1.005 1.005 0 0 0 14.88.29L9 6.173 3.119.29A.998.998 0 0 0 1.7.3L.3 1.7a1.008 1.008 0 0 0-.003 1.426l6.71 6.71C7.002 9.888 7 32 7 32H1.99A.995.995 0 0 0 1 33.01v1.98c0 .558.451 1.01.99 1.01H7v22.172L.297 64.875A1.002 1.002 0 0 0 .3 66.3l1.4 1.4a1.005 1.005 0 0 0 1.419.01L9 61.827l5.881 5.881A.998.998 0 0 0 16.3 67.7l1.4-1.4a1.008 1.008 0 0 0 .003-1.425L11 58.172V36h5.01c.546 0 .99-.443.99-1.01v-1.98c0-.558-.451-1.01-.99-1.01H11Z" class="color000000 svgShape"/></svg>